<?xml version="1.0" encoding="utf-8"?>
<!-- Generator: Adobe Illustrator 26.3.1, SVG Export Plug-In . SVG Version: 6.00 Build 0)  -->
<svg version="1.1" id="Livello_1" xmlns="http://www.w3.org/2000/svg" xmlns:xlink="http://www.w3.org/1999/xlink" x="0px" y="0px"
	 viewBox="0 0 122 47" style="enable-background:new 0 0 122 47;" xml:space="preserve">
<style type="text/css">
	.st0{fill-rule:evenodd;clip-rule:evenodd;fill:#FFED00;}
	.st1{fill-rule:evenodd;clip-rule:evenodd;fill:#FFFFFF;}
</style>
<g>
	<path class="st0" d="M23.2,16.4c0.1,0,0.2,0,0.3,0c0.9,0,1.7,0.1,2.5,0.2c0,0.1,0,0.2,0,0.4C25.1,16.7,24.2,16.5,23.2,16.4z
		 M24.9,29.5c-0.4,0-0.9,0.1-1.3,0.2c-0.5,0.1-1,0.2-1.6,0.4c-0.5,0.2-1,0.4-1.4,0.7c-0.4,0.3-0.8,0.5-1.1,0.9
		c-0.2,0.2-0.3,0.4-0.5,0.6c0.7,0,1.3-0.1,1.9-0.3c0.7-0.2,1.4-0.4,2-0.8c0.6-0.3,1.1-0.7,1.6-1.2C24.7,29.9,24.8,29.7,24.9,29.5z
		 M8.4,13.2c1.2,1.2,2.4,2.4,3.6,3.6c-0.5,0.1-1.1,0.3-1.6,0.5c-1.2,0.4-2.3,1-3.3,1.7c-1,0.7-2,1.5-2.8,2.4c-0.8,0.9-1.4,1.9-1.9,3
		c-0.5,1.1-0.8,2.2-0.9,3.4c-0.1,1.1-0.1,2.3,0.2,3.4c0.2,1.1,0.6,2.2,1.2,3.2c0.5,0.8,1,1.5,1.7,2.1c1.8,1.8,3.6,3.6,5.4,5.4
		c0.8,0.8,1.7,1.5,2.6,2c0.6,0.3,1.1,0.6,1.7,0.9c0.8,0.3,1.6,0.6,2.4,0.8c0.8,0.2,1.6,0.3,2.5,0.3c0.5,0,1,0.1,1.4,0.1
		c0.6,0,1.2,0,1.8,0c1.3-0.1,2.7-0.3,4-0.7c1.4-0.4,2.7-1,3.9-1.8c0.6,0.6,1.3,1.3,1.9,1.9c0.1,0.1,0.2,0.2,0.4,0.2h10.1
		c0.3,0,0.5-0.2,0.5-0.5V23.7c0-5.3-1.4-9.5-4.3-12.3c-1.8-1.8-3.6-3.6-5.4-5.4c-0.2-0.2-0.4-0.4-0.6-0.5c-0.8-0.7-1.7-1.4-2.7-1.9
		c-1-0.6-2.1-1-3.2-1.3c-1.2-0.4-2.4-0.6-3.7-0.8c-1.4-0.2-2.8-0.3-4.2-0.3c-3,0-6,0.4-8.9,1.2C8.7,2.9,6.8,3.6,5,4.6c0,0,0,0,0,0
		C4.7,4.8,4.6,5.1,4.8,5.3c1.2,2.6,2.4,5.1,3.6,7.7C8.3,13.1,8.4,13.1,8.4,13.2z"/>
	<path class="st1" d="M14.7,31.2c0-0.2,0-0.4,0-0.5c0-0.3,0.1-0.6,0.2-0.9c0.1-0.3,0.3-0.7,0.5-1c0.4-0.6,1-1.2,1.6-1.6
		c0.6-0.4,1.3-0.8,2-1c0.7-0.2,1.5-0.4,2.3-0.5c0.9-0.1,1.8-0.2,2.7-0.2c0.7,0,1.4,0,2.2,0.1c0-0.4,0-0.8,0-1.2
		c-0.9-0.2-1.9-0.3-2.8-0.4c-1-0.1-2-0.1-3,0c-0.5,0-1,0.1-1.5,0.1c-0.4,0.1-0.9,0.1-1.3,0.2c-0.8,0.2-1.5,0.5-2.2,0.9
		c-0.3,0.2-0.6,0.4-0.9,0.7c-0.3,0.2-0.5,0.5-0.7,0.8c-0.2,0.3-0.3,0.6-0.4,0.9c-0.1,0.3-0.1,0.7-0.1,1c0,0.3,0.1,0.7,0.2,1
		c0.1,0.2,0.2,0.3,0.2,0.5c0.1,0.2,0.2,0.3,0.3,0.5C14.2,30.9,14.5,31.1,14.7,31.2z M17.7,32.2c0.2-0.5,0.5-1,0.9-1.4
		c0.4-0.4,0.9-0.8,1.4-1.1c1-0.6,2.2-1,3.4-1.2c0.7-0.1,1.4-0.2,2.2-0.2c0.1-0.2,0.2-0.4,0.2-0.6c0.1-0.3,0.1-0.6,0.2-0.9
		c-0.7-0.1-1.4-0.1-2-0.1c-0.9,0-1.7,0.1-2.6,0.2c-0.7,0.1-1.4,0.2-2.1,0.5c-0.6,0.2-1.2,0.5-1.7,0.9c-0.5,0.3-0.9,0.7-1.2,1.2
		c-0.3,0.4-0.4,0.9-0.5,1.3c0,0.3,0,0.7,0.1,1c0.2,0.1,0.4,0.1,0.6,0.2C17,32.1,17.4,32.2,17.7,32.2z M24.9,29.5
		c-0.4,0-0.9,0.1-1.3,0.2c-0.5,0.1-1,0.2-1.6,0.4c-0.5,0.2-1,0.4-1.4,0.7c-0.4,0.3-0.8,0.5-1.1,0.9c-0.2,0.2-0.3,0.4-0.5,0.6
		c0.7,0,1.3-0.1,1.9-0.3c0.7-0.2,1.4-0.4,2-0.8c0.6-0.3,1.1-0.7,1.6-1.2C24.7,29.9,24.8,29.7,24.9,29.5z M26.7,23.4
		C26.7,23.4,26.7,23.4,26.7,23.4c-0.9-0.2-1.8-0.3-2.8-0.4c-0.9-0.1-1.8-0.1-2.7-0.1c-0.9,0-1.8,0.1-2.7,0.2
		c-0.8,0.1-1.5,0.3-2.3,0.5c-0.7,0.2-1.4,0.6-2,1c-0.6,0.4-1.2,0.9-1.6,1.6c-0.2,0.3-0.4,0.7-0.5,1c-0.1,0.4-0.2,0.8-0.2,1.1
		c0,0.8,0.2,1.6,0.6,2.2c0.4,0.7,0.9,1.2,1.6,1.7c0.7,0.4,1.4,0.8,2.2,0.9c0.8,0.2,1.7,0.3,2.5,0.2c0.8,0,1.6-0.1,2.4-0.3
		c0.8-0.2,1.6-0.5,2.3-0.9c0.7-0.4,1.4-0.9,1.9-1.5c0.3-0.3,0.6-0.7,0.8-1.1c0.3-0.6,0.6-1.2,0.8-1.8c0.3-1.3,0.4-2.6,0.2-4
		C27.1,23.6,27,23.5,26.7,23.4z"/>
	<path class="st1" d="M24.3,12.9c-0.7-0.2-1.3-0.3-2-0.3c-0.8-0.1-1.5-0.1-2.3-0.1c-0.8,0-1.5,0.1-2.3,0.2c-1.3,0.2-2.7,0.6-3.9,1.1
		c-0.7,0.3-1.5,0.6-2.2,1c-0.6-0.6-1.2-1.2-1.9-1.9c0.8-0.4,1.7-0.8,2.6-1.1c1.8-0.6,3.7-0.9,5.7-0.9c1.2,0,2.4,0.1,3.6,0.5
		c0.9,0.3,1.8,0.7,2.5,1.3C24.2,12.7,24.3,12.8,24.3,12.9z M20.8,13.6c-0.2,0-0.5,0-0.7,0c-0.7,0-1.4,0.1-2.1,0.2
		c-0.7,0.1-1.4,0.3-2.1,0.5c-0.5,0.2-1.1,0.3-1.6,0.5c-0.6,0.2-1.2,0.5-1.7,0.8c0.3,0.3,0.5,0.5,0.8,0.8c0.3,0,0.5-0.1,0.8-0.1
		c1.2-0.2,2.5-0.3,3.8-0.3c0,0,0,0,0,0l0,0c0,0,0,0,0,0c1.8-0.5,3.7-0.8,5.5-0.8c0.8,0,1.6,0.1,2.3,0.2c-0.1-0.3-0.2-0.6-0.3-0.8
		c-0.4-0.2-0.9-0.4-1.4-0.5c-0.6-0.2-1.2-0.3-1.9-0.3C21.7,13.7,21.3,13.6,20.8,13.6L20.8,13.6z M23.2,16.4c0.1,0,0.2,0,0.3,0
		c0.9,0,1.7,0.1,2.5,0.2c0,0.1,0,0.2,0,0.4C25.1,16.7,24.2,16.5,23.2,16.4z M27.9,35.7V39h8.9V18.3c0-1.3-0.1-2.5-0.3-3.8
		c-0.2-1.1-0.4-2.2-0.8-3.3c-0.4-1-0.8-1.9-1.4-2.7c-0.6-0.8-1.2-1.6-1.9-2.2c-0.8-0.7-1.6-1.2-2.5-1.7C29,4.1,28,3.7,27,3.3
		c-1.1-0.4-2.3-0.6-3.5-0.7c-1.3-0.2-2.7-0.3-4-0.3c-2.9,0-5.8,0.4-8.6,1.2C9.2,4,7.6,4.6,6,5.4c1,2.2,2,4.4,3.1,6.6
		c0.9-0.5,1.9-0.9,2.9-1.2c1.9-0.6,4-1,6-1c1.3,0,2.7,0.1,3.9,0.5c1.1,0.3,2.1,0.8,2.9,1.5c0.8,0.7,1.4,1.6,1.8,2.5
		c0.4,1.1,0.6,2.2,0.6,3.3v0c0,0.4-0.3,0.6-0.7,0.5c0,0,0,0,0,0c-2.8-0.8-5.7-1.1-8.6-1.1c-1.2,0-2.4,0.1-3.6,0.3
		c-1.2,0.2-2.3,0.5-3.5,0.9c-1.1,0.4-2.1,0.9-3.1,1.5c-0.9,0.6-1.8,1.4-2.5,2.2c-0.7,0.8-1.3,1.7-1.7,2.7s-0.7,2-0.8,3.1
		c-0.1,1-0.1,2.1,0.1,3.1c0.2,1,0.6,2,1.1,2.8c0.6,0.9,1.3,1.8,2.1,2.5c0.8,0.7,1.7,1.3,2.6,1.7c0.9,0.5,1.9,0.8,3,1
		c1,0.2,2.1,0.3,3.1,0.3c0.9,0,1.8,0,2.7,0c1-0.1,2-0.3,2.9-0.5c1.1-0.3,2.1-0.7,3.1-1.3c1.2-0.6,2.3-1.4,3.4-2.3c0,0,0,0,0,0
		C27.4,35,27.9,35.2,27.9,35.7z M36.8,10.9c0.4,1.1,0.7,2.2,0.9,3.4c0.2,1.3,0.3,2.7,0.3,4v21c0.5,0.5,1,1,1.6,1.6V21
		C39.6,16.8,38.7,13.4,36.8,10.9z M38.8,41.7l-1.6-1.6h-8.5l1.6,1.6H38.8z M26.9,39.9c-0.1,0-0.1,0.1-0.2,0.1
		c-1,0.6-2.1,1.1-3.3,1.4c-1.2,0.4-2.4,0.6-3.7,0.6c-0.6,0-1.2,0-1.7,0c-0.5,0-0.9,0-1.4-0.1c-0.8-0.1-1.6-0.1-2.3-0.3
		c-0.8-0.2-1.5-0.4-2.2-0.7c-0.6-0.2-1.1-0.5-1.6-0.8c-0.3-0.2-0.6-0.4-0.9-0.6c0.6,0.2,1.2,0.4,1.8,0.5c1.1,0.2,2.2,0.3,3.3,0.4
		c0.9,0,1.8,0,2.7,0c1-0.1,2-0.2,2.9-0.5c1.1-0.3,2.1-0.6,3.1-1.1c1.2-0.5,2.3-1.2,3.3-2v2.6C26.8,39.7,26.8,39.8,26.9,39.9
		C26.9,39.9,26.9,39.9,26.9,39.9z M39.6,13.6c1.8,2.5,2.7,5.8,2.7,10.1v19.8c-0.5-0.5-1-1-1.6-1.6V21C40.7,18.2,40.3,15.8,39.6,13.6
		z M41.5,44.4l-1.6-1.6h-8.5l1.6,1.6H41.5z M29.6,42.7c-1.1,0.6-2.2,1.1-3.4,1.5c-1.2,0.4-2.4,0.6-3.7,0.6c-0.6,0-1.2,0-1.7,0
		c-0.5,0-0.9,0-1.4-0.1c-0.8-0.1-1.6-0.1-2.3-0.3c-0.8-0.2-1.5-0.4-2.2-0.7c-0.6-0.2-1.1-0.5-1.6-0.8c-0.3-0.2-0.6-0.4-0.9-0.6
		c0.6,0.2,1.2,0.4,1.7,0.5c0.8,0.2,1.6,0.3,2.5,0.3c0.5,0,1,0.1,1.4,0.1c0.6,0,1.2,0,1.8,0c1.3-0.1,2.7-0.3,4-0.7
		c1.4-0.4,2.7-1,3.9-1.8C28.4,41.4,29,42,29.6,42.7z M42.9,45.5H32.8c-0.2,0-0.3,0-0.4-0.2c-0.6-0.6-1.3-1.3-1.9-1.9
		c-1.2,0.7-2.6,1.3-3.9,1.8c-1.3,0.4-2.6,0.6-4,0.7c-0.6,0-1.2,0-1.8,0c-0.5,0-1,0-1.4-0.1c-0.8-0.1-1.7-0.2-2.5-0.3
		c-0.8-0.2-1.6-0.4-2.4-0.8c-0.6-0.2-1.2-0.5-1.7-0.9c-1-0.6-1.8-1.2-2.6-2c-1.8-1.8-3.6-3.6-5.4-5.4c-0.6-0.6-1.2-1.3-1.7-2.1
		c-0.6-1-1-2.1-1.2-3.2c-0.2-1.1-0.3-2.3-0.2-3.4c0.1-1.2,0.4-2.3,0.9-3.4c0.5-1.1,1.1-2.1,1.9-3c0.8-0.9,1.8-1.8,2.8-2.4
		c1-0.7,2.1-1.2,3.3-1.7c0.5-0.2,1-0.3,1.6-0.5c-1.2-1.2-2.4-2.4-3.6-3.6c0,0-0.1-0.1-0.1-0.2c-1.2-2.6-2.4-5.1-3.6-7.7
		C4.6,5.1,4.7,4.8,5,4.6c0,0,0,0,0,0c1.8-1,3.7-1.7,5.6-2.2c2.9-0.8,5.9-1.2,8.9-1.2c1.4,0,2.8,0.1,4.2,0.3c1.2,0.2,2.5,0.4,3.7,0.8
		c1.1,0.3,2.2,0.8,3.2,1.3c1,0.5,1.9,1.1,2.7,1.9c0.2,0.2,0.4,0.3,0.6,0.5c1.8,1.8,3.6,3.6,5.4,5.4c2.9,2.9,4.3,7,4.3,12.3V45
		C43.4,45.3,43.2,45.5,42.9,45.5z"/>
	<path class="st1" d="M76.5,43.7v1.8h4.2V30.2h-4.4v7.6c0,1.4-0.3,2.4-1,3.1c-0.6,0.7-1.5,1-2.6,1c-2.1,0-3.1-1.2-3.1-3.7v-8h-4.4
		v8.6c0,2.3,0.6,4,1.8,5.1c1.2,1.2,2.8,1.7,4.8,1.7c0.9,0,1.8-0.2,2.6-0.5C75.3,44.8,76,44.3,76.5,43.7z"/>
	<path class="st1" d="M59.3,39.1c-0.6-0.1-1.2-0.2-1.8-0.2c-0.6,0-1.2,0-1.7,0.1c-0.5,0.1-0.9,0.2-1.3,0.5c-0.4,0.2-0.7,0.6-0.9,1
		c-0.1,0.4-0.1,0.9,0.1,1.3c0.2,0.4,0.6,0.7,1,0.8c0.5,0.2,1,0.2,1.5,0.2c0.5,0,1-0.1,1.5-0.4c0.4-0.2,0.8-0.5,1.1-0.9
		C59.3,40.8,59.4,39.9,59.3,39.1z M63.7,36.8c0-2.3-0.6-4-1.9-5.1c-1.3-1.1-3.1-1.7-5.5-1.7c-1.2,0-2.4,0.2-3.6,0.5
		c-0.8,0.2-1.6,0.5-2.2,0.9c0.5,1,1,2.1,1.5,3.1c0.4-0.2,0.9-0.4,1.4-0.6c0.8-0.3,1.6-0.4,2.4-0.4c1.2,0,2.1,0.3,2.6,0.8
		c0.6,0.5,0.9,1.3,0.9,2.2c-1.2-0.3-2.4-0.5-3.6-0.4c-1,0-2,0.1-3,0.5c-0.9,0.3-1.8,0.9-2.4,1.6c-0.6,0.7-1,1.6-1.1,2.5
		c-0.1,0.9,0.1,1.8,0.5,2.6c0.5,0.8,1.3,1.4,2,1.8c0.9,0.4,1.7,0.6,2.6,0.6c1.5,0.1,3.2-0.1,5.2-1.7v1.5h4.1V36.8z"/>
	<rect x="82.5" y="23.6" class="st1" width="4.4" height="21.9"/>
	<path class="st1" d="M112.6,42.1c1.1,0,2.1-0.4,2.8-1.2c0.7-0.8,1.1-1.8,1.1-3.1c0-1.3-0.4-2.3-1.1-3.1c-0.7-0.8-1.7-1.2-2.8-1.2
		c-1.1,0-2.1,0.4-2.8,1.2c-0.7,0.8-1.1,1.8-1.1,3.1c0,1.3,0.4,2.3,1.1,3.1C110.5,41.7,111.4,42.1,112.6,42.1z M108.7,23.6v8.2
		c1.1-1.2,2.6-1.8,4.6-1.8c1.4,0,2.7,0.3,3.9,1s2.1,1.6,2.7,2.8c0.7,1.2,1,2.6,1,4.1c0,1.6-0.3,2.9-1,4.1c-0.7,1.2-1.6,2.1-2.7,2.8
		s-2.5,1-3.9,1c-2.1,0-3.7-0.7-4.8-2v1.8h-4.2V23.6H108.7z"/>
	<path class="st1" d="M98.2,39.1c-0.6-0.1-1.2-0.2-1.8-0.2c-0.6,0-1.2,0-1.7,0.1c-0.5,0.1-0.9,0.2-1.3,0.5c-0.4,0.2-0.7,0.6-0.9,1
		c-0.1,0.4-0.1,0.9,0.1,1.3c0.2,0.4,0.6,0.7,1,0.8c0.5,0.2,1,0.2,1.5,0.2c0.5,0,1-0.1,1.5-0.4c0.4-0.2,0.8-0.5,1.1-0.9
		C98.2,40.8,98.3,39.9,98.2,39.1z M102.7,36.8c0-2.3-0.6-4-1.9-5.1c-1.3-1.1-3.1-1.7-5.4-1.7c-1.2,0-2.4,0.2-3.6,0.5
		c-0.8,0.2-1.6,0.5-2.2,0.9c0.5,1,1,2.1,1.5,3.1c0.4-0.2,0.9-0.4,1.4-0.6c0.8-0.3,1.6-0.4,2.4-0.4c1.2,0,2.1,0.3,2.6,0.8
		c0.6,0.5,0.9,1.3,0.9,2.2c-1.2-0.3-2.4-0.5-3.6-0.4c-1,0-2,0.1-3,0.5c-0.9,0.3-1.8,0.9-2.4,1.6c-0.6,0.7-1,1.6-1.1,2.5
		c-0.1,0.9,0.1,1.8,0.5,2.6c0.5,0.8,1.3,1.4,2,1.8c0.9,0.4,1.7,0.6,2.6,0.6c1.5,0.1,3.2-0.1,5.2-1.7v1.5h4.1V36.8z"/>
</g>
</svg>
